<svg xmlns="http://www.w3.org/2000/svg" viewBox="0 0 1024 1024" fill="none">
  <path d="M513.335652 61.529043c249.544348 0 451.895652 202.306783 451.895652 451.895653 0 24.30887-1.958957 48.172522-5.654261 71.368347l-3.294608 6.455653c-10.863304 13.846261-22.750609 17.942261-35.706435 12.243478-12.955826-5.698783-18.075826-17.67513-15.36-35.973565 2.493217-24.041739 3.739826-50.754783 3.739826-80.139131 0-44.121043-25.33287-174.035478-121.945043-261.030956-96.612174-87.04-184.498087-101.64313-221.540174-106.807652-37.042087-5.164522-170.874435-10.907826-272.962783 63.888695C190.419478 258.226087 161.124174 317.974261 134.277565 393.839304c-26.802087 75.865043-15.894261 184.809739-1.958956 228.307479 13.890783 43.453217 41.672348 112.061217 99.060869 168.603826 57.433043 56.542609 91.625739 67.494957 111.660522 78.269217 20.034783 10.818783 82.365217 32.678957 134.455652 37.086609a414.45287 414.45287 0 0 0 113.085218-6.188522 416.189217 416.189217 0 0 0 52.224-14.113391 23.730087 23.730087 0 0 1 20.524521 1.29113c7.034435 3.561739 11.842783 9.126957 14.469566 16.695652 1.558261 9.705739 0.578783 17.274435-2.982957 22.706087s-6.945391 8.681739-10.150957 9.794783c-49.730783 18.565565-95.053913 26.267826-151.373913 26.267826-249.58887 0-451.895652-199.546435-451.895652-449.135304 0-249.58887 202.306783-451.895652 451.895652-451.895653z m339.611826 593.608348a26.713043 26.713043 0 0 1 26.713044 26.713044v86.505739H966.121739a26.713043 26.713043 0 0 1 0 53.426087h-86.550261l0.044522 86.461217a26.713043 26.713043 0 1 1-53.426087 0v-86.461217h-86.505739a26.713043 26.713043 0 1 1 0-53.426087h86.461217l0.044522-86.505739a26.713043 26.713043 0 0 1 26.713044-26.713044zM755.311304 596.591304a254.486261 254.486261 0 0 1-239.972174 169.182609 254.486261 254.486261 0 0 1-239.927652-169.182609h479.899826zM343.574261 342.817391a42.295652 42.295652 0 0 1 42.295652 42.295652v42.295653a42.295652 42.295652 0 0 1-42.295652 42.295652h-0.222609a42.295652 42.295652 0 0 1-42.295652-42.295652v-42.295653a42.295652 42.295652 0 0 1 42.295652-42.295652h0.222609z m339.21113 0a42.295652 42.295652 0 0 1 42.295652 42.295652v42.295653a42.295652 42.295652 0 0 1-42.295652 42.295652h-0.222608a42.295652 42.295652 0 0 1-42.295653-42.295652v-42.295653a42.295652 42.295652 0 0 1 42.295653-42.295652h0.222608z" fill="#FF7D45"/>
</svg>
