<svg width="20" height="20" viewBox="0 0 20 20" fill="none" xmlns="http://www.w3.org/2000/svg">
  <path d="M16 1H14C13.45 1 13 1.45 13 2C13 2.55 13.45 3 14 3H16C16.55 3 17 2.55 17 2C17 1.45 16.55 1 16 1ZM19.5 4.5C19.5 4.22 19.28 4 19 4H17C16.72 4 16.5 4.22 16.5 4.5C16.5 4.78 16.72 5 17 5H19C19.28 5 19.5 4.78 19.5 4.5ZM15.5 7C15.5 6.72 15.28 6.5 15 6.5H13C12.72 6.5 12.5 6.72 12.5 7C12.5 7.28 12.72 7.5 13 7.5H15C15.28 7.5 15.5 7.28 15.5 7ZM18.5 9.5C18.5 9.22 18.28 9 18 9H16C15.72 9 15.5 9.22 15.5 9.5C15.5 9.78 15.72 10 16 10H18C18.28 10 18.5 9.78 18.5 9.5ZM16.5 12C16.5 11.72 16.28 11.5 16 11.5H14C13.72 11.5 13.5 11.72 13.5 12C13.5 12.28 13.72 12.5 14 12.5H16C16.28 12.5 16.5 12.28 16.5 12ZM19.5 14.5C19.5 14.22 19.28 14 19 14H17C16.72 14 16.5 14.22 16.5 14.5C16.5 14.78 16.72 15 17 15H19C19.28 15 19.5 14.78 19.5 14.5ZM15.5 17C15.5 16.72 15.28 16.5 15 16.5H13C12.72 16.5 12.5 16.72 12.5 17C12.5 17.28 12.72 17.5 13 17.5H15C15.28 17.5 15.5 17.28 15.5 17ZM18.5 19.5C18.5 19.22 18.28 19 18 19H16C15.72 19 15.5 19.22 15.5 19.5C15.5 19.78 15.72 20 16 20H18C18.28 20 18.5 19.78 18.5 19.5Z" fill="currentColor"/>
</svg> 