<svg xmlns="http://www.w3.org/2000/svg" viewBox="0 0 32 32">
  <path fill="#2D3436" d="M10.24 11.616l-4.224 4.192 4.224 4.192c1.088-1.056 1.76-2.56 1.76-4.192s-0.672-3.136-1.76-4.192z"/>
  <path fill="#2D3436" d="M15.199 6.721l-1.791 1.76c1.856 1.888 3.008 4.48 3.008 7.328s-1.152 5.44-3.008 7.328l1.791 1.76c2.336-2.304 3.809-5.536 3.809-9.088s-1.473-6.784-3.809-9.088z"/>
  <path fill="#2D3436" d="M20.129 1.793l-1.762 1.76c3.104 3.168 5.025 7.488 5.025 12.256s-1.921 9.088-5.025 12.256l1.762 1.76c3.648-3.616 5.887-8.544 5.887-14.016s-2.239-10.432-5.887-14.016z"/>
</svg>
