<svg width="16" height="16" viewBox="0 0 16 16" fill="none" xmlns="http://www.w3.org/2000/svg">
<path d="M13.5 8C13.5 11.0376 11.0376 13.5 8 13.5C6.4087 13.5 4.88258 12.8678 3.75736 11.7574L2.5 13V9.5H6L4.75736 10.7574C5.56702 11.567 6.7337 12 8 12C10.2091 12 12 10.2091 12 8H13.5Z" fill="#636E72"/>
<path d="M2.5 8C2.5 4.96243 4.96243 2.5 8 2.5C9.5913 2.5 11.1174 3.13222 12.2426 4.24264L13.5 3V6.5H10L11.2426 5.24264C10.433 4.43301 9.2663 4 8 4C5.79086 4 4 5.79086 4 8H2.5Z" fill="#636E72"/>
</svg>
