<svg t="1741279800000" class="icon" viewBox="0 0 1024 1024" version="1.1" xmlns="http://www.w3.org/2000/svg" p-id="4000" width="200" height="200"><path d="M700.8 915.2c-150.4 0-313.6-70.4-441.6-198.4S60.8 473.6 60.8 323.2c0-54.4 16-108.8 44.8-153.6 28.8-48 70.4-86.4 121.6-108.8 44.8-19.2 92.8-22.4 137.6-6.4 44.8 16 80 48 99.2 89.6l44.8 96c22.4 48 19.2 105.6-9.6 150.4L448 441.6c12.8 16 28.8 35.2 41.6 51.2 16 19.2 32 38.4 48 51.2l54.4-54.4c44.8-28.8 102.4-32 150.4-9.6l96 44.8c41.6 19.2 73.6 54.4 89.6 99.2 16 44.8 12.8 92.8-6.4 137.6-19.2 48-57.6 89.6-105.6 118.4-41.6 25.6-92.8 38.4-148.8 38.4zM326.4 118.4c-28.8 0-54.4 9.6-76.8 22.4-35.2 16-60.8 41.6-76.8 76.8-19.2 32-28.8 70.4-28.8 105.6 0 128 64 259.2 172.8 368s240 172.8 368 172.8c44.8 0 83.2-9.6 115.2-28.8 35.2-19.2 60.8-48 76.8-83.2 12.8-28.8 16-60.8 6.4-89.6-9.6-28.8-28.8-48-51.2-60.8l-96-44.8c-28.8-16-64-12.8-89.6 6.4L553.6 534.4c-9.6 9.6-22.4 9.6-32 0-16-12.8-32-28.8-48-48-16-16-32-35.2-44.8-54.4-3.2-6.4-3.2-16 0-22.4l73.6-51.2c22.4-22.4 25.6-57.6 9.6-89.6l-44.8-96c-12.8-22.4-35.2-41.6-60.8-51.2-19.2-9.6-48-12.8-81.6-12.8z" p-id="4001" fill="#2D3436"></path></svg>
